<svg width="19" height="20" viewBox="0 0 19 20" fill="none" xmlns="http://www.w3.org/2000/svg">
<mask id="mask0_1_424" style="mask-type:luminance" maskUnits="userSpaceOnUse" x="1" y="1" width="17" height="18">
<path d="M1 1.5H18V18.5H1V1.5Z" fill="white"/>
</mask>
<g mask="url(#mask0_1_424)">
<path d="M9.95499 1.53598C9.77586 1.58238 9.60809 1.66484 9.46193 1.77833C9.31578 1.89181 9.19432 2.03393 9.10499 2.19598C8.99899 2.39598 8.87899 2.88698 8.92599 2.92698C8.94199 2.93998 9.04199 2.96698 9.15199 2.98998C9.58899 3.08398 10.124 3.41498 10.412 3.78398C10.668 4.10198 10.802 4.43098 11.031 5.29398L11.24 6.08798L11.342 6.05798C11.395 6.04498 11.578 6.03198 11.742 6.03198C12 6.03198 12.064 6.04498 12.229 6.12498C12.455 6.23698 12.665 6.43998 12.773 6.65198L12.853 6.81198L13.033 6.66598C13.289 6.45998 13.471 6.39698 13.833 6.39698C14.092 6.39698 14.158 6.40998 14.318 6.49098C14.4988 6.5839 14.6546 6.71886 14.7724 6.88452C14.8903 7.05018 14.9666 7.2417 14.995 7.44298C15.035 7.78798 14.842 8.39298 14.544 8.85698C14.152 9.46098 13.484 10.115 12.761 10.611C12.628 10.7 12.521 10.797 12.521 10.82C12.521 10.846 12.771 11.786 13.073 12.915C13.379 14.054 13.637 15.093 13.661 15.255C13.694 15.505 13.707 15.547 13.767 15.561C14.121 15.637 14.673 15.717 14.862 15.717C15.1073 15.7147 15.347 15.6431 15.5533 15.5104C15.7596 15.3777 15.9242 15.1893 16.028 14.967C16.091 14.827 16.314 13.635 17.057 9.43198C18.119 3.41498 18.07 3.81098 17.854 3.37198C17.7833 3.23365 17.6915 3.10714 17.582 2.99698C17.27 2.70498 17.34 2.72198 13.7 2.08398C11.874 1.76098 10.314 1.49898 10.231 1.50198C10.1387 1.50661 10.0468 1.51764 9.95599 1.53498" fill="#e1a92b"/>
<path d="M8.106 4.0032C7.95 4.0462 6.502 4.4352 4.885 4.8662C3.268 5.3012 1.867 5.6912 1.77 5.7362C1.67 5.7792 1.545 5.8562 1.488 5.9022C1.202 6.1412 1 6.5662 1 6.9252C1 7.1652 3.789 17.5842 3.916 17.8122C4.038 18.0422 4.344 18.3142 4.576 18.4002C4.968 18.5502 5.097 18.5362 6.166 18.2512C10.211 17.1752 11.731 16.7632 11.884 16.7002C12.149 16.5982 12.399 16.3512 12.544 16.0502C12.661 15.8172 12.671 15.7772 12.671 15.5142C12.668 15.2452 12.591 14.9442 11.263 10.0002C10.307 6.4332 9.833 4.7172 9.772 4.6082C9.6357 4.36585 9.42839 4.1711 9.178 4.0502C8.882 3.9072 8.522 3.8902 8.106 4.0032ZM6.398 8.5132C6.617 8.6822 8.668 10.5042 8.732 10.5842C8.7705 10.6334 8.79472 10.6922 8.802 10.7542C8.802 10.8702 7.812 13.7892 7.749 13.8582C7.676 13.9382 7.474 13.9982 7.384 13.9602C7.301 13.9302 5.007 11.9222 4.934 11.8162C4.90424 11.7679 4.88705 11.7129 4.884 11.6562C4.884 11.6062 5.11 10.9032 5.382 10.0932C5.81 8.8242 5.893 8.6092 5.979 8.5292C6.03407 8.47412 6.10786 8.44179 6.18568 8.43864C6.2635 8.43549 6.33966 8.46175 6.399 8.5122" fill="#e1a92b"/>
</g>
</svg>
