<svg width="17" height="18" viewBox="0 0 17 18" fill="none" xmlns="http://www.w3.org/2000/svg">
<mask id="mask0_389_19" style="mask-type:luminance" maskUnits="userSpaceOnUse" x="0" y="0" width="17" height="18">
<path d="M0 0.5H17V17.5H0V0.5Z" fill="white"/>
</mask>
<g mask="url(#mask0_389_19)">
<path d="M16.242 2.68491L12.756 1.64091V1.56591C12.756 0.979906 12.28 0.503906 11.694 0.503906H1.063C0.476 0.503906 0 0.979906 0 1.56591V14.8549C0 15.4409 0.476 15.9169 1.063 15.9169H6.703L11.82 17.4499C11.9538 17.4899 12.0941 17.5032 12.2329 17.4889C12.3718 17.4747 12.5065 17.4332 12.6294 17.3669C12.7522 17.3006 12.8608 17.2108 12.949 17.1025C13.0371 16.9942 13.103 16.8697 13.143 16.7359L16.956 4.00791C16.996 3.87416 17.0093 3.73384 16.995 3.59496C16.9808 3.45609 16.9393 3.32138 16.873 3.19852C16.8067 3.07567 16.7169 2.96708 16.6086 2.87895C16.5003 2.79083 16.3758 2.72489 16.242 2.68491ZM1.063 1.56591H11.693V14.8549H1.063V1.56591Z" fill="#e1a92b"/>
<path d="M4.591 5.58203C4.969 5.58203 5.29333 5.6497 5.564 5.78503C5.836 5.92103 6.04233 6.1067 6.183 6.34203C6.32966 6.57736 6.403 6.8427 6.403 7.13803C6.40673 7.386 6.36189 7.6323 6.271 7.86303C6.17148 8.08586 6.03713 8.29143 5.873 8.47203C5.65555 8.70604 5.42234 8.92488 5.175 9.12703L4.335 9.83403L6.572 9.82503L6.678 10.701H2.771V9.93103L4.556 8.41103C4.72704 8.26365 4.88964 8.10674 5.043 7.94103C5.179 7.80103 5.279 7.6687 5.343 7.54403C5.40268 7.43523 5.43623 7.31404 5.441 7.19003C5.44564 7.09007 5.42342 6.99069 5.37664 6.90223C5.32986 6.81377 5.26023 6.73946 5.175 6.68703C4.999 6.56903 4.76333 6.51003 4.468 6.51003C4.29133 6.51003 4.11466 6.5367 3.938 6.59003C3.77396 6.63504 3.61405 6.69392 3.46 6.76603C3.33138 6.82715 3.20465 6.89218 3.08 6.96103L2.885 6.04103C3.04966 5.94103 3.27666 5.84103 3.566 5.74103C3.85533 5.63503 4.197 5.58203 4.591 5.58203ZM9.527 10.7H8.387V6.97003L7.379 7.35903L6.946 6.50003L8.766 5.69603H9.527V10.7Z" fill="#e1a92b"/>
</g>
</svg>
