<svg width="16" height="17" viewBox="0 0 16 17" fill="none" xmlns="http://www.w3.org/2000/svg">
<path d="M15.7812 14.0044L12.6656 10.8887C12.525 10.7481 12.3344 10.67 12.1344 10.67H11.625C12.4875 9.56686 13 8.17936 13 6.66998C13 3.07936 10.0906 0.169983 6.5 0.169983C2.90937 0.169983 0 3.07936 0 6.66998C0 10.2606 2.90937 13.17 6.5 13.17C8.00937 13.17 9.39688 12.6575 10.5 11.795V12.3044C10.5 12.5044 10.5781 12.695 10.7188 12.8356L13.8344 15.9512C14.1281 16.245 14.6031 16.245 14.8938 15.9512L15.7781 15.0669C16.0719 14.7731 16.0719 14.2981 15.7812 14.0044ZM6.5 10.67C4.29063 10.67 2.5 8.88248 2.5 6.66998C2.5 4.46061 4.2875 2.66998 6.5 2.66998C8.70938 2.66998 10.5 4.45748 10.5 6.66998C10.5 8.87936 8.7125 10.67 6.5 10.67Z" fill="#837B99"/>
</svg>
